<svg width="485" height="321" viewBox="0 0 485 321" fill="none" xmlns="http://www.w3.org/2000/svg">
<g clip-path="url(#clip0_29_817)">
<path d="M466.042 214.82C462.54 218.644 458.197 221.49 453.484 223.7H453.478C453.035 223.91 452.591 224.115 452.142 224.308H452.136L452.13 224.314L452.125 224.308H452.119L452.119 224.31L452.118 224.312L452.116 224.313L452.113 224.314H452.108L452.102 224.308C452.097 224.314 452.097 224.314 452.091 224.308L452.085 224.314L452.079 224.308H452.074C452.068 224.314 452.068 224.314 452.062 224.308H452.057C448.902 225.672 445.662 226.829 442.358 227.774C422.926 233.283 402.503 234.349 382.603 230.893C382.222 230.825 381.846 230.756 381.466 230.688V184.606C381.841 184.447 382.222 184.288 382.603 184.135C385.087 183.106 387.602 182.161 390.147 181.3C393.808 180.05 397.52 178.978 401.284 178.084C413.562 175.114 426.231 174.09 438.827 175.05C441.119 175.221 443.404 175.467 445.684 175.789C450.453 176.453 455.456 177.612 459.857 179.624H459.862C460.505 179.925 461.136 180.237 461.761 180.572C465.672 182.692 468.97 185.606 470.982 189.6C471.705 191.035 472.226 192.562 472.528 194.14V194.151C472.642 194.696 472.722 195.248 472.784 195.793C473.501 202.52 470.709 209.718 466.042 214.82Z" fill="#9BA4B5"/>
<path d="M472.784 195.793C472.728 195.807 472.671 195.814 472.614 195.816C462.875 196.242 453.15 196.874 443.438 197.713H443.421C443.381 197.719 443.347 197.719 443.308 197.725C433.336 198.588 423.385 199.67 413.455 200.969C413.035 201.026 412.619 201.082 412.204 201.133C405.337 202.048 398.483 203.063 391.642 204.179C388.623 204.673 385.61 205.188 382.603 205.724C382.222 205.792 381.846 205.855 381.466 205.929V204.207C381.846 204.133 382.227 204.071 382.603 204.003C392.62 202.23 402.671 200.683 412.756 199.361C415.292 199.02 417.831 198.698 420.374 198.395C427.719 197.509 435.075 196.744 442.443 196.1C442.983 196.054 443.518 196.009 444.058 195.963C453.489 195.162 462.934 194.554 472.392 194.14C472.438 194.138 472.484 194.141 472.528 194.151C473.438 194.231 473.631 195.594 472.784 195.793Z" fill="#F1F6F9"/>
<path d="M452.56 222.634C440.429 222.723 428.477 217.582 419.895 209.073C417.474 206.662 415.341 203.98 413.537 201.079C412.959 200.152 411.606 201.174 412.179 202.093C418.844 212.775 429.945 220.383 442.184 223.181C445.659 223.968 449.215 224.348 452.778 224.314C453.866 224.306 453.641 222.626 452.56 222.634Z" fill="#F1F6F9"/>
<path d="M401.284 178.084C401.232 178.244 401.139 178.387 401.014 178.5C400.889 178.612 400.737 178.69 400.573 178.726C397.793 179.454 395.106 180.503 392.569 181.851C388.862 183.807 385.497 186.349 382.603 189.379C382.449 189.532 382.301 189.685 382.159 189.845C381.92 190.095 381.693 190.35 381.466 190.612V188.134C381.829 187.748 382.21 187.367 382.603 187.004C384.888 184.817 387.42 182.903 390.147 181.3C393.808 180.05 397.52 178.978 401.284 178.084Z" fill="#F1F6F9"/>
<path d="M460.862 179.176C453.145 182.491 446.688 188.18 442.43 195.416C442.344 195.624 442.343 195.856 442.427 196.064C442.512 196.272 442.675 196.438 442.881 196.527C443.088 196.609 443.32 196.607 443.526 196.524C443.733 196.44 443.9 196.28 443.992 196.076C448.055 189.242 454.186 183.873 461.499 180.746C462.503 180.317 461.868 178.747 460.862 179.176Z" fill="#F1F6F9"/>
<path d="M484.126 130.923C482.807 135.934 480.277 140.473 477.133 144.615L477.128 144.62C476.838 145.007 476.536 145.399 476.224 145.774V145.779C474.041 148.467 471.684 151.008 469.169 153.387C460.126 161.999 449.911 169.292 438.827 175.05C421.392 184.152 401.903 189.532 382.603 189.839C382.455 189.845 382.307 189.845 382.159 189.845C381.926 189.85 381.693 189.85 381.466 189.85V164.028C381.835 163.324 382.216 162.619 382.603 161.92C387.618 152.901 393.735 144.538 400.812 137.024C400.982 136.837 401.159 136.649 401.335 136.468C403.995 133.661 406.785 130.989 409.703 128.451C420.93 118.586 433.905 110.907 447.958 105.811C452.489 104.186 457.457 102.885 462.29 102.629C463 102.589 463.705 102.572 464.416 102.578C468.867 102.64 473.137 103.692 476.781 106.294C478.086 107.23 479.256 108.341 480.26 109.595C480.612 110.032 480.937 110.481 481.249 110.941V110.947C485.013 116.571 485.888 124.236 484.126 130.923Z" fill="#9BA4B5"/>
<path d="M481.249 110.941V110.947C481.207 110.983 481.162 111.016 481.113 111.043C472.699 115.935 464.391 121.005 456.19 126.252C456.178 126.258 456.173 126.264 456.161 126.269C456.129 126.292 456.094 126.313 456.059 126.332C447.628 131.729 439.317 137.308 431.124 143.069C430.783 143.308 430.437 143.552 430.09 143.797C424.433 147.791 418.835 151.87 413.296 156.034C402.836 163.909 392.604 172.075 382.603 180.533C382.222 180.851 381.847 181.175 381.466 181.499V179.288C381.841 178.965 382.222 178.641 382.603 178.323C386.435 175.09 390.3 171.903 394.2 168.761C395.366 167.823 396.537 166.886 397.708 165.96C408.112 157.682 418.748 149.713 429.618 142.052H429.624C431.761 140.547 433.903 139.055 436.048 137.575C442.142 133.383 448.305 129.29 454.536 125.298C454.984 125.008 455.439 124.718 455.894 124.429C463.87 119.338 471.951 114.414 480.135 109.657C480.175 109.633 480.217 109.612 480.26 109.595C481.113 109.254 481.914 110.379 481.249 110.941Z" fill="#F1F6F9"/>
<path d="M475.819 144.1C465.117 149.81 452.143 150.806 440.589 147.254C437.324 146.244 434.188 144.859 431.242 143.127C430.299 142.575 429.576 144.108 430.511 144.656C441.378 151.021 454.745 152.606 466.884 149.402C470.328 148.485 473.653 147.171 476.793 145.486C477.753 144.974 476.772 143.591 475.819 144.1Z" fill="#F1F6F9"/>
<path d="M395.747 164.887C395.217 161.913 395.036 158.887 395.206 155.871C395.589 148.992 397.696 142.32 401.335 136.469C403.998 133.663 406.788 130.99 409.705 128.451C409.732 128.617 409.716 128.787 409.658 128.945C409.599 129.103 409.501 129.243 409.372 129.351C407.249 131.287 405.358 133.462 403.737 135.832C397.944 144.281 395.684 154.656 397.437 164.747C397.465 164.861 397.463 164.981 397.432 165.094C397.401 165.208 397.341 165.312 397.258 165.396C397.137 165.502 396.989 165.574 396.831 165.605C396.673 165.637 396.509 165.626 396.357 165.575C396.204 165.523 396.067 165.433 395.96 165.312C395.853 165.191 395.78 165.045 395.747 164.887Z" fill="#F1F6F9"/>
<path d="M462.971 101.761C457.677 108.279 454.604 116.315 454.197 124.7C454.217 124.923 454.324 125.13 454.495 125.275C454.667 125.419 454.888 125.491 455.112 125.474C455.334 125.45 455.538 125.342 455.682 125.171C455.827 125.001 455.9 124.782 455.886 124.559C456.308 116.62 459.242 109.021 464.265 102.856C464.954 102.01 463.662 100.914 462.971 101.761Z" fill="#F1F6F9"/>
<path d="M404.098 120.429V120.435C404.058 120.923 404.013 121.406 403.961 121.889V121.9C403.566 125.338 402.949 128.746 402.114 132.104C401.716 133.752 401.283 135.388 400.812 137.024C400.755 137.235 400.692 137.445 400.63 137.649V137.655C399.241 142.414 397.582 147.09 395.661 151.66C392.126 160.074 387.751 168.11 382.603 175.647C382.233 176.198 381.852 176.749 381.466 177.294V88.3233C381.846 88.3005 382.222 88.3005 382.603 88.3119C382.784 88.3119 382.966 88.3176 383.148 88.329C384.752 88.4132 386.337 88.7211 387.856 89.2437C388.39 89.4198 388.907 89.6187 389.419 89.8402C395.621 92.5559 400.494 98.5442 402.608 105.129C404.194 110.06 404.513 115.248 404.098 120.429Z" fill="#9BA4B5"/>
<path d="M389.419 89.8402C389.406 89.8959 389.385 89.9495 389.356 89.9993C387.054 94.4706 384.803 98.9646 382.603 103.481C382.222 104.26 381.841 105.044 381.466 105.822V101.959C381.841 101.186 382.22 100.413 382.603 99.6407C384.303 96.1977 386.031 92.77 387.787 89.3573C387.807 89.3175 387.83 89.2794 387.856 89.2437C388.379 88.4937 389.675 89.0051 389.419 89.8402Z" fill="#F1F6F9"/>
<path d="M404.28 121.344C404.177 121.525 404.075 121.707 403.961 121.889C402.292 124.796 400.305 127.51 398.037 129.979C393.682 134.702 388.437 138.519 382.603 141.212C382.227 141.393 381.846 141.564 381.466 141.723V139.876C381.846 139.706 382.227 139.53 382.603 139.348C391.048 135.322 398.063 128.817 402.711 120.702C402.778 120.586 402.869 120.486 402.978 120.408C403.087 120.33 403.212 120.277 403.343 120.252C403.475 120.227 403.61 120.23 403.74 120.261C403.87 120.293 403.992 120.352 404.098 120.435C404.169 120.482 404.231 120.544 404.279 120.615C404.327 120.687 404.36 120.767 404.377 120.851C404.394 120.936 404.394 121.023 404.377 121.107C404.361 121.192 404.327 121.272 404.28 121.344Z" fill="#F1F6F9"/>
<path d="M382.603 18.7487V61.9274H381.466V61.4672H1.13701V61.9274H0V18.7487C0.00488252 13.7777 1.98301 9.01175 5.50024 5.49675C9.01748 1.98174 13.7865 0.00487941 18.7606 0H363.842C368.816 0.00487941 373.585 1.98174 377.102 5.49675C380.62 9.01175 382.598 13.7777 382.603 18.7487Z" fill="#212A3E"/>
<path d="M363.842 0H18.7606C13.7865 0.00487941 9.01748 1.98174 5.50024 5.49675C1.98301 9.01175 0.00488252 13.7777 0 18.7487V265.322C0.00488252 270.293 1.98301 275.059 5.50024 278.574C9.01748 282.089 13.7865 284.066 18.7606 284.071H363.842C368.816 284.066 373.585 282.089 377.102 278.574C380.62 275.059 382.598 270.293 382.603 265.322V18.7487C382.598 13.7777 380.62 9.01175 377.102 5.49675C373.585 1.98174 368.816 0.00487941 363.842 0ZM381.466 265.322C381.46 269.991 379.601 274.468 376.297 277.769C372.993 281.071 368.514 282.929 363.842 282.935H18.7606C14.0884 282.929 9.60919 281.071 6.30542 277.769C3.00164 274.468 1.14297 269.991 1.13701 265.322V18.7487C1.14297 14.0794 3.00164 9.60309 6.30542 6.30142C9.60919 2.99974 14.0884 1.14224 18.7606 1.13628H363.842C368.514 1.14224 372.993 2.99974 376.297 6.30142C379.601 9.60309 381.46 14.0794 381.466 18.7487V265.322Z" fill="#3F3D56"/>
<path d="M77.3164 42.3266C83.5959 42.3266 88.6865 37.2392 88.6865 30.9637C88.6865 24.6882 83.5959 19.6009 77.3164 19.6009C71.0369 19.6009 65.9464 24.6882 65.9464 30.9637C65.9464 37.2392 71.0369 42.3266 77.3164 42.3266Z" fill="#F1F6F9"/>
<path d="M305.286 42.3266C311.566 42.3266 316.656 37.2392 316.656 30.9637C316.656 24.6882 311.566 19.6009 305.286 19.6009C299.007 19.6009 293.916 24.6882 293.916 30.9637C293.916 37.2392 299.007 42.3266 305.286 42.3266Z" fill="#F1F6F9"/>
<path d="M110.167 157.66H42.5288C39.6633 157.657 36.9162 156.518 34.89 154.493C32.8637 152.468 31.724 149.723 31.7208 146.859V114.911C31.724 112.047 32.8637 109.302 34.89 107.277C36.9162 105.252 39.6633 104.113 42.5288 104.11H110.167C113.033 104.113 115.78 105.252 117.806 107.277C119.832 109.302 120.972 112.047 120.975 114.911V146.859C120.972 149.723 119.832 152.468 117.806 154.493C115.78 156.518 113.033 157.657 110.167 157.66Z" fill="#212A3E"/>
<path d="M225.231 157.66H157.593C154.728 157.657 151.98 156.518 149.954 154.493C147.928 152.468 146.788 149.723 146.785 146.859V114.911C146.788 112.047 147.928 109.302 149.954 107.277C151.98 105.252 154.728 104.113 157.593 104.11H225.231C228.097 104.113 230.844 105.252 232.87 107.277C234.896 109.302 236.036 112.047 236.039 114.911V146.859C236.036 149.723 234.896 152.468 232.87 154.493C230.844 156.518 228.097 157.657 225.231 157.66Z" fill="#212A3E"/>
<path d="M225.231 240.206H157.593C154.641 240.203 151.81 239.03 149.723 236.943C147.635 234.857 146.461 232.028 146.457 229.078V197.13C146.461 194.179 147.635 191.35 149.723 189.264C151.81 187.178 154.641 186.004 157.593 186.001H225.231C228.184 186.004 231.014 187.178 233.102 189.264C235.189 191.35 236.364 194.179 236.367 197.13V229.078C236.364 232.028 235.189 234.857 233.102 236.943C231.014 239.03 228.184 240.203 225.231 240.206Z" fill="#9BA4B5"/>
<path d="M109.945 240.206H42.307C39.3547 240.203 36.5242 239.03 34.4366 236.943C32.349 234.857 31.1748 232.028 31.1714 229.078V197.13C31.1748 194.179 32.349 191.35 34.4366 189.264C36.5242 187.178 39.3547 186.004 42.307 186.001H109.945C112.898 186.004 115.728 187.178 117.816 189.264C119.903 191.35 121.078 194.179 121.081 197.13V229.078C121.078 232.028 119.903 234.857 117.816 236.943C115.728 239.03 112.898 240.203 109.945 240.206Z" fill="#9BA4B5"/>
<path d="M340.296 240.206H272.657C269.705 240.203 266.875 239.03 264.787 236.943C262.699 234.857 261.525 232.028 261.522 229.078V197.13C261.525 194.179 262.699 191.35 264.787 189.264C266.875 187.178 269.705 186.004 272.657 186.001H340.296C343.248 186.004 346.078 187.178 348.166 189.264C350.254 191.35 351.428 194.179 351.431 197.13V229.078C351.428 232.028 350.254 234.857 348.166 236.943C346.078 239.03 343.248 240.203 340.296 240.206Z" fill="#9BA4B5"/>
<path d="M340.296 157.725H272.657C269.705 157.721 266.875 156.548 264.787 154.461C262.699 152.375 261.525 149.547 261.522 146.596V114.648C261.525 111.697 262.699 108.869 264.787 106.782C266.875 104.696 269.705 103.523 272.657 103.519H340.296C343.248 103.523 346.078 104.696 348.166 106.782C350.254 108.869 351.428 111.697 351.431 114.648V146.596C351.428 149.547 350.254 152.375 348.166 154.461C346.078 156.548 343.248 157.721 340.296 157.725Z" fill="#9BA4B5"/>
<path d="M76.348 149.214C86.4774 149.214 94.6889 141.008 94.6889 130.885C94.6889 120.762 86.4774 112.556 76.348 112.556C66.2185 112.556 58.007 120.762 58.007 130.885C58.007 141.008 66.2185 149.214 76.348 149.214Z" fill="#F1F6F9"/>
<path d="M74.53 137.877C74.1174 137.878 73.7157 137.745 73.3855 137.497L73.365 137.482L69.0548 134.184C68.8549 134.031 68.6871 133.841 68.5609 133.623C68.4348 133.406 68.3528 133.165 68.3197 132.916C68.2865 132.667 68.3029 132.413 68.3678 132.17C68.4327 131.927 68.5448 131.7 68.6979 131.5C68.8509 131.3 69.0418 131.133 69.2597 131.007C69.4776 130.881 69.7181 130.799 69.9676 130.767C70.217 130.734 70.4706 130.75 70.7136 130.815C70.9567 130.88 71.1845 130.993 71.3841 131.146L74.176 133.285L80.7736 124.687C80.9266 124.487 81.1174 124.32 81.3351 124.194C81.5529 124.068 81.7932 123.987 82.0426 123.954C82.2919 123.921 82.5452 123.937 82.7882 124.002C83.0311 124.067 83.2588 124.179 83.4584 124.332L83.4174 124.388L83.4594 124.333C83.862 124.642 84.1254 125.099 84.1918 125.602C84.2583 126.105 84.1223 126.613 83.8138 127.016L76.0535 137.131C75.874 137.364 75.6432 137.552 75.379 137.682C75.1148 137.811 74.8243 137.878 74.53 137.877Z" fill="#212A3E"/>
<path d="M191.74 148.951C201.869 148.951 210.081 140.745 210.081 130.622C210.081 120.499 201.869 112.293 191.74 112.293C181.61 112.293 173.399 120.499 173.399 130.622C173.399 140.745 181.61 148.951 191.74 148.951Z" fill="#F1F6F9"/>
<path d="M189.922 137.614C189.509 137.615 189.107 137.482 188.777 137.234L188.757 137.219L184.446 133.921C184.043 133.612 183.779 133.156 183.713 132.653C183.646 132.15 183.782 131.641 184.091 131.238C184.4 130.835 184.856 130.571 185.36 130.505C185.863 130.438 186.373 130.574 186.776 130.883L189.568 133.022L196.165 124.423C196.318 124.224 196.509 124.057 196.727 123.931C196.945 123.805 197.185 123.723 197.434 123.691C197.684 123.658 197.937 123.674 198.18 123.739C198.423 123.804 198.651 123.916 198.85 124.069L198.809 124.125L198.851 124.07C199.254 124.379 199.517 124.835 199.583 125.338C199.65 125.841 199.514 126.35 199.206 126.753L191.445 136.867C191.266 137.1 191.035 137.289 190.771 137.418C190.506 137.548 190.216 137.615 189.922 137.614Z" fill="#212A3E"/>
<path d="M315.697 217.115C316.299 216.457 316.75 215.674 317.017 214.823C317.285 213.972 317.362 213.072 317.243 212.188C317.125 211.303 316.814 210.455 316.333 209.704C315.851 208.953 315.21 208.316 314.456 207.839L304.216 153.199L291.764 157.814L305.744 210.072C305.026 211.392 304.818 212.929 305.158 214.392C305.498 215.855 306.363 217.143 307.59 218.011C308.817 218.88 310.32 219.268 311.814 219.103C313.308 218.937 314.69 218.23 315.697 217.115Z" fill="#A0616A"/>
<path d="M216.331 133.741C216.362 134.08 216.366 134.421 216.343 134.761L240.556 153.385L247.422 150.567L253.032 160.367L241.361 166.536C240.419 167.034 239.34 167.213 238.286 167.046C237.233 166.88 236.262 166.376 235.519 165.611L211.317 140.676C210.036 140.964 208.698 140.857 207.479 140.366C206.261 139.876 205.221 139.027 204.498 137.932C203.774 136.836 203.401 135.547 203.429 134.235C203.457 132.923 203.883 131.65 204.653 130.586C205.422 129.522 206.497 128.718 207.734 128.279C208.972 127.841 210.314 127.79 211.582 128.132C212.85 128.474 213.983 129.194 214.832 130.196C215.68 131.198 216.203 132.435 216.331 133.741Z" fill="#A0616A"/>
<path d="M272.897 314.096H265.928L262.612 292.912L272.899 292.912L272.897 314.096Z" fill="#A0616A"/>
<path d="M274.675 320.849L252.202 320.848V320.564C252.202 319.416 252.428 318.279 252.868 317.218C253.307 316.158 253.952 315.194 254.764 314.382C255.576 313.571 256.54 312.927 257.602 312.487C258.663 312.048 259.8 311.822 260.949 311.822L274.676 311.823L274.675 320.849Z" fill="#2F2E41"/>
<path d="M299.049 314.096H292.079L288.763 292.912L299.05 292.912L299.049 314.096Z" fill="#A0616A"/>
<path d="M300.826 320.849L278.353 320.848V320.564C278.353 319.416 278.579 318.279 279.019 317.218C279.458 316.158 280.103 315.194 280.915 314.382C281.727 313.571 282.692 312.927 283.753 312.487C284.814 312.048 285.952 311.822 287.1 311.822L300.827 311.823L300.826 320.849Z" fill="#2F2E41"/>
<path d="M264.481 309.909C263.844 309.91 263.231 309.673 262.76 309.245C262.29 308.817 261.996 308.229 261.937 307.596L255.863 225.96L256.15 225.937L297.947 222.503L297.958 222.8L301.281 307.368C301.294 307.712 301.237 308.055 301.115 308.376C300.992 308.697 300.806 308.99 300.567 309.238C300.328 309.485 300.042 309.682 299.725 309.817C299.409 309.951 299.068 310.02 298.724 310.02H290.529C289.917 310.023 289.325 309.806 288.86 309.408C288.396 309.01 288.091 308.458 288.001 307.853L276.872 239.536C276.861 239.466 276.824 239.402 276.768 239.358C276.712 239.313 276.641 239.291 276.57 239.296C276.499 239.302 276.432 239.333 276.383 239.386C276.334 239.438 276.307 239.506 276.306 239.578L275.802 307.029C275.796 307.681 275.543 308.306 275.092 308.777C274.642 309.248 274.029 309.53 273.378 309.564L264.618 309.906C264.572 309.908 264.526 309.909 264.481 309.909Z" fill="#2F2E41"/>
<path d="M271.615 122.79C279.326 122.79 285.578 116.542 285.578 108.836C285.578 101.129 279.326 94.8815 271.615 94.8815C263.903 94.8815 257.652 101.129 257.652 108.836C257.652 116.542 263.903 122.79 271.615 122.79Z" fill="#A0616A"/>
<path d="M274.318 231.166C268.215 231.148 262.142 230.319 256.258 228.7C255.691 228.535 255.199 228.18 254.864 227.695C254.529 227.21 254.371 226.625 254.418 226.037C256.298 197.804 256.74 175.895 252.787 160.735C251.102 154.274 251.867 147.47 254.885 142.066C259.428 133.935 267.776 128.985 276.682 129.156C277.107 129.164 277.537 129.179 277.971 129.202C291.486 129.897 302.017 142.116 301.447 156.439L298.729 224.712C298.719 225.21 298.561 225.694 298.277 226.103C297.992 226.512 297.592 226.827 297.128 227.01C289.836 229.751 282.109 231.159 274.318 231.166Z" fill="#3F3D56"/>
<path d="M255.085 165.977L244.626 153.169C244.328 152.804 244.112 152.38 243.994 151.925C243.875 151.47 243.856 150.994 243.938 150.531C244.019 150.068 244.2 149.628 244.467 149.241C244.734 148.853 245.082 148.528 245.486 148.288L259.654 139.851C261.529 138.339 263.926 137.632 266.321 137.885C268.717 138.138 270.914 139.329 272.431 141.199C273.948 143.068 274.662 145.462 274.415 147.856C274.168 150.25 272.982 152.449 271.115 153.97L260.043 166.113C259.725 166.461 259.337 166.736 258.904 166.92C258.471 167.104 258.003 167.193 257.532 167.18C257.062 167.167 256.6 167.053 256.177 166.845C255.755 166.638 255.382 166.342 255.085 165.977Z" fill="#3F3D56"/>
<path d="M287.987 164.37C287.557 164.178 287.174 163.896 286.863 163.542C286.553 163.188 286.323 162.772 286.188 162.321L281.48 146.581C280.457 144.401 280.342 141.905 281.159 139.641C281.975 137.376 283.657 135.528 285.836 134.501C288.014 133.474 290.511 133.353 292.779 134.163C295.047 134.974 296.901 136.65 297.934 138.825L307.039 152.567C307.299 152.96 307.471 153.403 307.544 153.868C307.617 154.332 307.589 154.807 307.461 155.26C307.334 155.713 307.11 156.133 306.806 156.492C306.501 156.851 306.123 157.139 305.697 157.339L290.714 164.348C290.288 164.547 289.824 164.653 289.353 164.656C288.882 164.66 288.416 164.563 287.987 164.37Z" fill="#3F3D56"/>
<path d="M278.515 120.285L268.165 117.918C267.097 117.674 265.814 117.208 265.666 116.123C265.467 114.666 267.566 113.651 267.372 112.193C267.185 110.78 265.273 110.598 263.91 110.181C262.64 109.736 261.594 108.815 260.992 107.613C260.39 106.41 260.28 105.021 260.685 103.739C259.21 105.816 255.841 105.994 253.928 104.311C252.015 102.628 251.648 99.5746 252.797 97.3011C253.417 96.1844 254.293 95.2298 255.352 94.5151C256.412 93.8003 257.625 93.3454 258.893 93.1875C261.444 92.8985 264.022 93.3789 266.297 94.5669C266.448 92.9571 268.46 92.3045 270.077 92.2901C273.438 92.3293 276.703 93.4145 279.418 95.3947C282.133 97.3749 284.162 100.152 285.224 103.338C287.209 109.731 285.881 116.739 280.327 120.479L278.515 120.285Z" fill="#2F2E41"/>
<path d="M382.766 321H166.166C166.016 321 165.871 320.94 165.764 320.834C165.658 320.727 165.598 320.583 165.598 320.432C165.598 320.281 165.658 320.137 165.764 320.03C165.871 319.924 166.016 319.864 166.166 319.864H382.766C382.917 319.864 383.061 319.924 383.168 320.03C383.275 320.137 383.335 320.281 383.335 320.432C383.335 320.583 383.275 320.727 383.168 320.834C383.061 320.94 382.917 321 382.766 321Z" fill="#3F3D56"/>
</g>
<defs>
<clipPath id="clip0_29_817">
<rect width="485" height="321" fill="white"/>
</clipPath>
</defs>
</svg>
