<svg width="779" height="480" viewBox="0 0 779 480" fill="none" xmlns="http://www.w3.org/2000/svg">
<g clip-path="url(#clip0_108_354)">
<path d="M208.333 120.244H111.493V121.626H208.333V120.244Z" fill="#F2F2F2"/>
<path d="M139.161 107.798H137.778V120.589H139.161V107.798Z" fill="#F2F2F2"/>
<path d="M181.356 107.798H179.973V120.589H181.356V107.798Z" fill="#F2F2F2"/>
<path d="M175.131 51.1014H78.2902V52.4843H175.131V51.1014Z" fill="#F2F2F2"/>
<path d="M148.845 52.1385H147.462V64.9298H148.845V52.1385Z" fill="#F2F2F2"/>
<path d="M106.651 52.1385H105.267V64.9298H106.651V52.1385Z" fill="#F2F2F2"/>
<path d="M328.692 147.9H231.852V149.283H328.692V147.9Z" fill="#F2F2F2"/>
<path d="M259.52 135.455H258.137V148.246H259.52V135.455Z" fill="#F2F2F2"/>
<path d="M301.715 135.455H300.332V148.246H301.715V135.455Z" fill="#F2F2F2"/>
<path d="M295.489 78.7583H198.649V80.1411H295.489V78.7583Z" fill="#F2F2F2"/>
<path d="M269.204 79.7954H267.821V92.5867H269.204V79.7954Z" fill="#F2F2F2"/>
<path d="M227.01 79.7954H225.626V92.5867H227.01V79.7954Z" fill="#F2F2F2"/>
<path d="M290.648 382.984H193.807V384.366H290.648V382.984Z" fill="#F2F2F2"/>
<path d="M221.476 370.538H220.092V383.329H221.476V370.538Z" fill="#F2F2F2"/>
<path d="M263.671 370.538H262.287V383.329H263.671V370.538Z" fill="#F2F2F2"/>
<path d="M257.445 313.842H160.605V315.224H257.445V313.842Z" fill="#F2F2F2"/>
<path d="M231.16 314.879H229.776V327.67H231.16V314.879Z" fill="#F2F2F2"/>
<path d="M188.965 314.879H187.582V327.67H188.965V314.879Z" fill="#F2F2F2"/>
<path d="M246.378 233.637H149.537V235.019H246.378V233.637Z" fill="#F2F2F2"/>
<path d="M177.206 221.191H175.822V233.982H177.206V221.191Z" fill="#F2F2F2"/>
<path d="M219.401 221.191H218.017V233.982H219.401V221.191Z" fill="#F2F2F2"/>
<path d="M213.175 164.495H116.335V165.877H213.175V164.495Z" fill="#F2F2F2"/>
<path d="M186.89 165.532H185.506V178.323H186.89V165.532Z" fill="#F2F2F2"/>
<path d="M144.695 165.532H143.312V178.323H144.695V165.532Z" fill="#F2F2F2"/>
<path d="M176.514 338.733H79.6736V340.116H176.514V338.733Z" fill="#F2F2F2"/>
<path d="M107.342 326.287H105.959V339.078H107.342V326.287Z" fill="#F2F2F2"/>
<path d="M149.537 326.287H148.154V339.078H149.537V326.287Z" fill="#F2F2F2"/>
<path d="M143.312 269.591H46.4713V270.973H143.312V269.591Z" fill="#F2F2F2"/>
<path d="M117.026 270.628H115.643V283.419H117.026V270.628Z" fill="#F2F2F2"/>
<path d="M74.8317 270.628H73.4482V283.419H74.8317V270.628Z" fill="#F2F2F2"/>
<path d="M658.641 120.244H561.801V121.626H658.641V120.244Z" fill="#F2F2F2"/>
<path d="M589.469 107.798H588.086V120.589H589.469V107.798Z" fill="#F2F2F2"/>
<path d="M631.664 107.798H630.281V120.589H631.664V107.798Z" fill="#F2F2F2"/>
<path d="M625.439 51.1014H528.598V52.4843H625.439V51.1014Z" fill="#F2F2F2"/>
<path d="M599.153 52.1385H597.77V64.9298H599.153V52.1385Z" fill="#F2F2F2"/>
<path d="M556.959 52.1385H555.575V64.9298H556.959V52.1385Z" fill="#F2F2F2"/>
<path d="M779 147.9H682.16V149.283H779V147.9Z" fill="#F2F2F2"/>
<path d="M709.828 135.455H708.445V148.246H709.828V135.455Z" fill="#F2F2F2"/>
<path d="M752.023 135.455H750.64V148.246H752.023V135.455Z" fill="#F2F2F2"/>
<path d="M745.797 78.7583H648.957V80.1411H745.797V78.7583Z" fill="#F2F2F2"/>
<path d="M719.512 79.7954H718.129V92.5867H719.512V79.7954Z" fill="#F2F2F2"/>
<path d="M677.318 79.7954H675.934V92.5867H677.318V79.7954Z" fill="#F2F2F2"/>
<path d="M740.956 382.984H644.115V384.366H740.956V382.984Z" fill="#F2F2F2"/>
<path d="M671.784 370.538H670.4V383.329H671.784V370.538Z" fill="#F2F2F2"/>
<path d="M713.979 370.538H712.595V383.329H713.979V370.538Z" fill="#F2F2F2"/>
<path d="M707.753 313.842H610.913V315.224H707.753V313.842Z" fill="#F2F2F2"/>
<path d="M681.468 314.879H680.084V327.67H681.468V314.879Z" fill="#F2F2F2"/>
<path d="M639.273 314.879H637.89V327.67H639.273V314.879Z" fill="#F2F2F2"/>
<path d="M696.686 233.637H599.845V235.019H696.686V233.637Z" fill="#F2F2F2"/>
<path d="M627.514 221.191H626.13V233.982H627.514V221.191Z" fill="#F2F2F2"/>
<path d="M669.709 221.191H668.325V233.982H669.709V221.191Z" fill="#F2F2F2"/>
<path d="M663.483 164.495H566.643V165.877H663.483V164.495Z" fill="#F2F2F2"/>
<path d="M637.198 165.532H635.814V178.323H637.198V165.532Z" fill="#F2F2F2"/>
<path d="M595.003 165.532H593.62V178.323H595.003V165.532Z" fill="#F2F2F2"/>
<path d="M626.822 338.733H529.982V340.116H626.822V338.733Z" fill="#F2F2F2"/>
<path d="M557.65 326.287H556.267V339.078H557.65V326.287Z" fill="#F2F2F2"/>
<path d="M599.845 326.287H598.462V339.078H599.845V326.287Z" fill="#F2F2F2"/>
<path d="M593.62 269.591H496.779V270.973H593.62V269.591Z" fill="#F2F2F2"/>
<path d="M567.334 270.628H565.951V283.419H567.334V270.628Z" fill="#F2F2F2"/>
<path d="M525.14 270.628H523.756V283.419H525.14V270.628Z" fill="#F2F2F2"/>
<path d="M385.587 0H251.048V190.832H385.587V0Z" fill="#3F3D56"/>
<path d="M558.17 228.86H423.631V419.693H558.17V228.86Z" fill="#3F3D56"/>
<path d="M558.17 0H423.631V190.832H558.17V0Z" fill="#3F3D56"/>
<path d="M385.587 228.86H251.048V419.693H385.587V228.86Z" fill="#3F3D56"/>
<path d="M732.483 419.092H66.0067V420.641H732.483V419.092Z" fill="#2F2E41"/>
<path d="M78.8101 408.63H71.2012V472.932C71.2012 472.932 120.313 488.835 168.042 472.932V408.63H78.8101Z" fill="#3F3D56"/>
<path d="M118.93 416.236C145.289 416.236 166.658 412.985 166.658 408.976C166.658 404.966 145.289 401.716 118.93 401.716C92.5699 401.716 71.2012 404.966 71.2012 408.976C71.2012 412.985 92.5699 416.236 118.93 416.236Z" fill="#3F3D56"/>
<path opacity="0.1" d="M118.93 416.236C145.289 416.236 166.658 412.985 166.658 408.976C166.658 404.966 145.289 401.716 118.93 401.716C92.5699 401.716 71.2012 404.966 71.2012 408.976C71.2012 412.985 92.5699 416.236 118.93 416.236Z" fill="black"/>
<path d="M174.411 331.803C162.371 376.293 121.13 403.846 121.13 403.846C121.13 403.846 99.4102 359.268 111.451 314.779C123.491 270.289 164.732 242.736 164.732 242.736C164.732 242.736 186.451 287.314 174.411 331.803Z" fill="#3F3D56"/>
<path d="M64.8775 331.803C76.9178 376.293 118.159 403.846 118.159 403.846C118.159 403.846 139.878 359.268 127.838 314.779C115.798 270.289 74.5568 242.736 74.5568 242.736C74.5568 242.736 52.8372 287.314 64.8775 331.803Z" fill="#212A3E"/>
<path d="M82.5699 322.242C115.609 354.39 119.644 403.81 119.644 403.81C119.644 403.81 70.1131 401.106 37.0743 368.958C4.03547 336.81 0 287.391 0 287.391C0 287.391 49.5311 290.094 82.5699 322.242Z" fill="#3F3D56"/>
<path d="M156.719 322.242C123.68 354.39 119.644 403.81 119.644 403.81C119.644 403.81 169.175 401.106 202.214 368.958C235.253 336.81 239.289 287.391 239.289 287.391C239.289 287.391 189.757 290.094 156.719 322.242Z" fill="#3F3D56"/>
<path d="M119.621 257.9C128.026 257.9 134.839 251.09 134.839 242.689C134.839 234.288 128.026 227.478 119.621 227.478C111.217 227.478 104.404 234.288 104.404 242.689C104.404 251.09 111.217 257.9 119.621 257.9Z" fill="#212A3E"/>
<path d="M304.31 104.405C305.456 104.405 306.385 103.476 306.385 102.33C306.385 101.185 305.456 100.256 304.31 100.256C303.164 100.256 302.235 101.185 302.235 102.33C302.235 103.476 303.164 104.405 304.31 104.405Z" fill="white"/>
<path d="M294.626 77.4392C307.997 77.4392 318.836 66.6046 318.836 53.2394C318.836 39.8743 307.997 29.0397 294.626 29.0397C281.255 29.0397 270.416 39.8743 270.416 53.2394C270.416 66.6046 281.255 77.4392 294.626 77.4392Z" fill="white"/>
<path d="M333.362 87.119C333.744 87.119 334.054 86.8095 334.054 86.4276C334.054 86.0458 333.744 85.7362 333.362 85.7362C332.98 85.7362 332.67 86.0458 332.67 86.4276C332.67 86.8095 332.98 87.119 333.362 87.119Z" fill="white"/>
<path d="M455.104 121.69C455.486 121.69 455.796 121.381 455.796 120.999C455.796 120.617 455.486 120.307 455.104 120.307C454.722 120.307 454.413 120.617 454.413 120.999C454.413 121.381 454.722 121.69 455.104 121.69Z" fill="white"/>
<path d="M447.495 328.425C447.877 328.425 448.187 328.116 448.187 327.734C448.187 327.352 447.877 327.042 447.495 327.042C447.113 327.042 446.804 327.352 446.804 327.734C446.804 328.116 447.113 328.425 447.495 328.425Z" fill="white"/>
<path d="M301.543 376.133C301.925 376.133 302.235 375.824 302.235 375.442C302.235 375.06 301.925 374.75 301.543 374.75C301.161 374.75 300.851 375.06 300.851 375.442C300.851 375.824 301.161 376.133 301.543 376.133Z" fill="white"/>
<path d="M505.6 145.89C505.982 145.89 506.291 145.58 506.291 145.198C506.291 144.817 505.982 144.507 505.6 144.507C505.218 144.507 504.908 144.817 504.908 145.198C504.908 145.58 505.218 145.89 505.6 145.89Z" fill="white"/>
<path d="M498.683 87.8105C499.065 87.8105 499.374 87.501 499.374 87.1191C499.374 86.7372 499.065 86.4277 498.683 86.4277C498.301 86.4277 497.991 86.7372 497.991 87.1191C497.991 87.501 498.301 87.8105 498.683 87.8105Z" fill="white"/>
<path d="M475.164 274.494C475.546 274.494 475.856 274.185 475.856 273.803C475.856 273.421 475.546 273.111 475.164 273.111C474.782 273.111 474.472 273.421 474.472 273.803C474.472 274.185 474.782 274.494 475.164 274.494Z" fill="white"/>
<path d="M437.811 170.781C438.193 170.781 438.503 170.471 438.503 170.09C438.503 169.708 438.193 169.398 437.811 169.398C437.429 169.398 437.12 169.708 437.12 170.09C437.12 170.471 437.429 170.781 437.811 170.781Z" fill="white"/>
<path d="M443.345 73.2907C443.727 73.2907 444.037 72.9811 444.037 72.5993C444.037 72.2174 443.727 71.9078 443.345 71.9078C442.963 71.9078 442.653 72.2174 442.653 72.5993C442.653 72.9811 442.963 73.2907 443.345 73.2907Z" fill="white"/>
<path d="M506.291 33.8797C506.673 33.8797 506.983 33.5701 506.983 33.1882C506.983 32.8064 506.673 32.4968 506.291 32.4968C505.909 32.4968 505.6 32.8064 505.6 33.1882C505.6 33.5701 505.909 33.8797 506.291 33.8797Z" fill="white"/>
<path d="M302.927 313.905C303.309 313.905 303.618 313.596 303.618 313.214C303.618 312.832 303.309 312.522 302.927 312.522C302.544 312.522 302.235 312.832 302.235 313.214C302.235 313.596 302.544 313.905 302.927 313.905Z" fill="white"/>
<path d="M362.414 366.453C362.796 366.453 363.106 366.144 363.106 365.762C363.106 365.38 362.796 365.07 362.414 365.07C362.032 365.07 361.723 365.38 361.723 365.762C361.723 366.144 362.032 366.453 362.414 366.453Z" fill="white"/>
<path d="M286.325 262.049C286.707 262.049 287.017 261.739 287.017 261.357C287.017 260.975 286.707 260.666 286.325 260.666C285.943 260.666 285.634 260.975 285.634 261.357C285.634 261.739 285.943 262.049 286.325 262.049Z" fill="white"/>
<path d="M303.618 170.781C304 170.781 304.31 170.471 304.31 170.09C304.31 169.708 304 169.398 303.618 169.398C303.236 169.398 302.927 169.708 302.927 170.09C302.927 170.471 303.236 170.781 303.618 170.781Z" fill="white"/>
<path opacity="0.1" d="M303.618 170.781L385.587 135.47V144.818L303.618 170.781Z" fill="white"/>
<path opacity="0.1" d="M558.17 61.1285V90.1475L423.631 132.767V119.083L558.17 61.1285Z" fill="white"/>
<path opacity="0.1" d="M343.766 273.098L385.587 250.066V253.268C362.2 264.586 344.582 272.724 343.766 273.098Z" fill="white"/>
<path opacity="0.1" d="M424.102 228.86H434.65C430.991 230.748 427.318 232.622 423.631 234.482V229.123L424.102 228.86Z" fill="white"/>
<path opacity="0.1" d="M506.983 183.227C506.665 185.059 504.251 187.659 500.232 190.832H493.17L506.983 183.227Z" fill="white"/>
<path opacity="0.1" d="M558.17 307.24V312.121C522.256 330.036 489.448 345.185 488.334 345.697L558.17 307.24Z" fill="white"/>
<path d="M477.239 314.035C477.239 312.663 476.845 311.321 476.105 310.166C475.365 309.011 474.31 308.092 473.064 307.517L473.285 304.693H457.83L459.627 323.017H471.848L472.01 320.943C473.515 320.517 474.84 319.612 475.784 318.366C476.728 317.119 477.239 315.598 477.239 314.035ZM472.096 319.85L472.952 308.94C473.694 309.672 474.267 310.558 474.632 311.534C474.996 312.511 475.142 313.555 475.061 314.594C474.979 315.633 474.672 316.642 474.16 317.55C473.648 318.457 472.943 319.243 472.096 319.85Z" fill="#212A3E"/>
<path d="M460.576 299.121C460.576 299.121 478.851 312.169 472.759 317.388C466.668 322.607 454.484 301.73 454.484 301.73L460.576 299.121Z" fill="#FFB9B9"/>
<path d="M376.162 319.128C376.162 319.128 379.643 362.622 380.513 368.711C381.383 374.8 382.253 429.602 383.994 435.691C385.734 441.78 387.475 456.568 387.475 456.568H397.918C397.918 456.568 397.048 429.602 399.658 419.164C402.269 408.725 401.399 380.019 401.399 380.019C401.399 380.019 406.62 328.697 404.01 321.738C401.399 314.779 376.162 319.128 376.162 319.128Z" fill="#FFB9B9"/>
<path d="M390.086 453.959C390.086 453.959 385.734 456.568 385.734 458.308C385.734 460.048 386.605 464.397 385.734 466.137C384.864 467.877 378.772 474.836 382.253 476.575C385.734 478.315 401.399 476.575 401.399 476.575C401.399 476.575 400.529 464.397 399.658 463.527C398.788 462.657 400.529 453.959 400.529 453.959H390.086Z" fill="#2F2E41"/>
<path d="M442.687 318.062C442.687 318.062 443.793 361.681 443.567 367.828C443.341 373.974 448.23 428.565 447.139 434.803C446.047 441.041 445.869 455.93 445.869 455.93L435.484 457.026C435.484 457.026 433.518 430.117 429.825 420.01C426.133 409.903 423.984 381.265 423.984 381.265C423.984 381.265 413.402 330.774 415.267 323.579C417.133 316.385 442.687 318.062 442.687 318.062Z" fill="#FFB9B9"/>
<path d="M442.999 453.609C442.999 453.609 447.6 455.748 447.783 457.478C447.965 459.208 447.557 463.625 448.605 465.263C449.653 466.902 456.442 473.184 453.163 475.279C449.884 477.374 434.123 477.288 434.123 477.288C434.123 477.288 433.71 465.085 434.484 464.129C435.258 463.173 432.614 454.705 432.614 454.705L442.999 453.609Z" fill="#2F2E41"/>
<path d="M388.345 253.887C388.345 253.887 381.383 254.757 378.772 269.545C376.162 284.333 366.589 321.738 374.421 324.347C382.253 326.957 405.75 332.176 406.62 330.436C407.491 328.697 409.231 324.347 409.231 324.347C409.231 324.347 406.62 332.176 410.101 332.176C413.582 332.176 447.522 326.957 446.652 324.347C445.782 321.738 444.041 302.6 444.041 302.6C444.041 302.6 438.82 270.415 433.598 265.196C432.087 263.746 430.914 261.981 430.162 260.026C429.41 258.072 429.097 255.976 429.247 253.887H388.345Z" fill="#2F2E41"/>
<path d="M375.291 246.928C375.291 246.928 386.605 244.319 388.345 247.798C390.086 251.278 383.994 256.497 381.383 256.497C378.772 256.497 374.421 253.887 374.421 253.887L375.291 246.928Z" fill="#FFB9B9"/>
<path d="M415.344 171.848C423.995 171.848 431.008 164.837 431.008 156.19C431.008 147.542 423.995 140.532 415.344 140.532C406.692 140.532 399.679 147.542 399.679 156.19C399.679 164.837 406.692 171.848 415.344 171.848Z" fill="#FFB9B9"/>
<path d="M405.88 166.918C405.88 166.918 404.01 180.818 402.269 180.818C400.529 180.818 415.323 188.647 415.323 188.647L426.636 186.907L430.117 181.688C430.117 181.688 424.719 173.306 424.719 166.347C424.719 159.388 405.88 166.918 405.88 166.918Z" fill="#FFB9B9"/>
<path d="M409.231 180.818C409.231 180.818 406.62 179.078 405.75 179.078H398.788C397.918 179.078 386.605 181.688 386.605 181.688L379.643 220.832C379.643 220.832 391.826 240.839 383.124 256.497C383.124 256.497 385.734 254.757 397.918 255.627C410.101 256.497 431.858 259.107 432.728 259.107C433.598 259.107 433.598 252.148 432.728 250.408C431.858 248.668 433.598 249.538 433.598 245.189C433.598 240.839 436.209 233.01 436.209 233.01L448.392 188.647C448.392 188.647 432.728 179.948 430.117 180.818C427.506 181.688 419.674 184.297 417.934 183.427C416.193 182.557 409.231 180.818 409.231 180.818Z" fill="#FF6584"/>
<path d="M389.215 182.557L386.605 181.688C386.605 181.688 381.383 180.818 375.291 186.037C369.2 191.256 346.573 206.914 346.573 206.914C346.573 206.914 337.871 213.873 340.482 221.702C343.092 229.531 347.444 248.668 360.497 247.798C360.497 247.798 368.329 258.237 372.681 256.497C377.032 254.757 380.513 247.798 377.902 246.928C375.291 246.058 368.329 237.36 368.329 237.36L377.032 220.832H379.643L389.215 215.613L389.215 182.557Z" fill="#FF6584"/>
<path d="M441.43 187.777L448.392 188.647C448.392 188.647 454.484 191.256 453.614 202.565C452.744 213.873 458.835 265.196 456.225 271.285C456.225 271.285 464.927 300.861 463.186 301.73C461.446 302.6 451.003 307.82 451.873 304.34C452.744 300.861 442.301 276.504 442.301 276.504C442.301 276.504 430.117 263.456 435.339 245.189V230.401L441.43 187.777Z" fill="#FF6584"/>
<path d="M455.958 170.249C454.017 167.505 451.628 165.106 449.579 162.441C444.855 156.296 443.221 148.107 436.882 143.395C430.609 138.732 420.655 134.142 412.806 134.51C402.461 134.995 394.255 143.017 387.123 150.523C381.673 156.259 376.224 161.996 370.774 167.732C366.831 171.882 362.743 176.288 361.322 181.831C359.957 187.16 361.289 192.884 363.79 197.783C366.388 202.753 370.032 207.102 374.472 210.53C379.945 202.997 387.612 192.596 387.612 192.596L389.397 218.467C398.669 221.539 408.629 222.143 418.399 221.464L421.294 210.856L424.331 220.876C436.008 219.329 447.738 215.299 454.966 206.191C462.957 196.122 463.382 180.744 455.958 170.249Z" fill="#2F2E41"/>
<path d="M390.755 167.637C389.14 159.532 390.885 151.134 396.309 144.704C406.33 132.823 425.09 132.156 438.21 143.213C443.446 147.576 447.202 153.451 448.966 160.033C447.459 152.748 443.522 146.19 437.799 141.433C424.679 130.375 405.919 131.043 395.898 142.923C390.075 149.827 388.492 158.995 390.755 167.637Z" fill="#2F2E41"/>
<path d="M359.927 205.869C358.313 197.764 360.057 189.367 365.482 182.936C375.503 171.055 394.262 170.388 407.383 181.445C412.618 185.808 416.375 191.684 418.138 198.265C416.631 190.98 412.694 184.422 406.972 179.665C393.851 168.608 375.091 169.275 365.07 181.156C359.248 188.059 357.665 197.228 359.927 205.869Z" fill="#2F2E41"/>
<path d="M429.841 163.29C438.069 162.481 446.258 165.042 452.127 171.07C462.969 182.206 461.789 200.933 449.491 212.897C444.633 217.676 438.414 220.835 431.688 221.942C439.089 221.159 446.006 217.888 451.304 212.663C463.602 200.699 464.782 181.972 453.939 170.836C447.639 164.365 438.666 161.889 429.841 163.29Z" fill="#2F2E41"/>
<path opacity="0.1" d="M468.757 274.083C467.957 273.897 467.119 273.958 466.354 274.259C465.589 274.559 464.934 275.084 464.474 275.765C464.15 276.291 463.917 276.867 463.783 277.47C463.403 279.121 463.479 280.844 464.003 282.454C464.526 284.065 465.478 285.504 466.756 286.616C467.427 287.109 468.062 287.648 468.658 288.229C469.21 288.897 469.593 289.688 469.775 290.535C469.957 291.382 469.933 292.26 469.705 293.096C469.226 294.769 468.226 296.247 466.851 297.315C466.564 297.51 466.324 297.767 466.149 298.066C465.681 299.067 466.888 300.019 467.195 301.081" fill="white"/>
</g>
<defs>
<clipPath id="clip0_108_354">
<rect width="779" height="480" fill="white"/>
</clipPath>
</defs>
</svg>
