<svg width="465" height="411" viewBox="0 0 465 411" fill="none" xmlns="http://www.w3.org/2000/svg">
<g clip-path="url(#clip0_29_497)">
<path d="M444.402 410.454L443.782 410.222C443.646 410.17 430.104 404.984 423.761 393.225C417.417 381.465 420.523 367.306 420.555 367.165L420.701 366.52L421.32 366.752C421.456 366.803 434.998 371.99 441.342 383.749C447.686 395.509 444.58 409.667 444.547 409.809L444.402 410.454ZM424.777 392.678C430.14 402.62 440.841 407.717 443.552 408.88C444.068 405.975 445.685 394.229 440.326 384.296C434.968 374.364 424.263 369.26 421.55 368.094C421.034 371 419.418 382.745 424.777 392.678Z" fill="#3F3D56"/>
<path d="M428.609 389.1C440.009 395.956 444.4 409.573 444.4 409.573C444.4 409.573 430.307 412.075 418.906 405.22C407.506 398.364 403.115 384.746 403.115 384.746C403.115 384.746 417.208 382.244 428.609 389.1Z" fill="#212A3E"/>
<path d="M245.072 220.267C245.625 219.413 246.352 218.685 247.205 218.132C248.059 217.578 249.02 217.211 250.025 217.054C251.031 216.897 252.058 216.955 253.04 217.223C254.021 217.491 254.935 217.963 255.722 218.608C255.97 218.814 256.203 219.036 256.42 219.274L284.811 215.143L286.391 193.803C286.512 192.166 287.279 190.644 288.523 189.572C289.766 188.5 291.385 187.965 293.023 188.086C294.661 188.207 296.183 188.973 297.256 190.217C298.329 191.46 298.863 193.078 298.742 194.715C298.74 194.753 298.736 194.791 298.733 194.829L295.965 224.773L295.952 224.839C295.592 225.99 294.87 226.995 293.894 227.703C292.917 228.412 291.738 228.787 290.532 228.772L257.138 228.196C257.009 228.394 256.869 228.585 256.719 228.768C256.073 229.554 255.268 230.195 254.357 230.648C253.446 231.101 252.45 231.357 251.433 231.399C250.416 231.441 249.402 231.267 248.457 230.889C247.512 230.512 246.657 229.939 245.949 229.209C245.806 229.061 245.669 228.909 245.541 228.752C244.578 227.568 244.015 226.109 243.931 224.586C243.847 223.062 244.246 221.551 245.072 220.267Z" fill="#FFB7B7"/>
<path d="M302.311 402.215L294.213 402.215L290.361 370.995L302.312 370.996L302.311 402.215Z" fill="#FFB7B7"/>
<path d="M304.376 410.061L278.267 410.06V409.73C278.267 407.036 279.338 404.452 281.243 402.547C283.149 400.642 285.734 399.572 288.429 399.572H288.43L304.377 399.573L304.376 410.061Z" fill="#2F2E41"/>
<path d="M358.893 394.877L351.23 397.489L337.5 369.185L348.812 365.329L358.893 394.877Z" fill="#FFB7B7"/>
<path d="M363.382 401.636L338.67 410.061L338.564 409.749C337.694 407.199 337.873 404.408 339.061 401.99C340.25 399.572 342.35 397.725 344.901 396.855L344.902 396.855L359.995 391.709L363.382 401.636Z" fill="#2F2E41"/>
<path d="M311.228 129.247C311.228 129.247 303.168 126.586 297.987 137.228C292.806 147.87 284.746 159.577 284.746 159.577L289.352 160.641C289.352 160.641 290.503 153.192 293.382 152.127L292.23 161.705C292.23 161.705 326.771 172.879 342.315 160.641L341.739 156.916C341.739 156.916 344.042 157.448 344.042 160.641L345.769 159.045C345.769 159.045 344.042 155.852 338.86 151.595C335.46 148.801 334.291 143.486 333.89 140.162C333.571 137.349 332.364 134.71 330.444 132.628C327 128.94 320.726 125.019 311.228 129.247Z" fill="#2F2E41"/>
<path d="M314.198 166.429C322.328 166.429 328.919 159.841 328.919 151.715C328.919 143.588 322.328 137.001 314.198 137.001C306.069 137.001 299.478 143.588 299.478 151.715C299.478 159.841 306.069 166.429 314.198 166.429Z" fill="#FFB7B7"/>
<path d="M294.571 178.545L291.895 177.653C291.895 177.653 286.542 179.882 286.542 183.895C286.542 187.908 285.65 203.959 285.65 203.959L297.694 205.297L294.571 178.545Z" fill="#9BA4B5"/>
<path d="M342.474 266.247C341.364 265.004 340.738 263.403 340.709 261.737C340.679 260.071 341.249 258.45 342.315 257.168L334.802 194.272C334.728 192.789 335.246 191.337 336.243 190.236C337.239 189.134 338.631 188.472 340.115 188.396C341.599 188.319 343.052 188.834 344.156 189.828C345.261 190.822 345.925 192.212 346.005 193.695C346.006 193.716 346.007 193.736 346.007 193.757L352.729 256.719C352.973 256.964 353.197 257.227 353.401 257.506C353.94 258.251 354.327 259.095 354.54 259.99C354.752 260.884 354.787 261.812 354.641 262.72C354.495 263.628 354.172 264.498 353.689 265.282C353.207 266.065 352.575 266.745 351.829 267.284C351.752 267.34 351.673 267.394 351.594 267.447C350.731 268.018 349.752 268.39 348.727 268.538C347.703 268.687 346.658 268.606 345.669 268.303C344.433 267.929 343.327 267.217 342.474 266.247Z" fill="#FFB7B7"/>
<path d="M335.593 203.959L347.637 202.622C347.637 202.622 346.745 186.57 346.745 182.557C346.745 178.544 341.392 176.315 341.392 176.315L338.716 177.207L335.593 203.959Z" fill="#9BA4B5"/>
<path d="M296.356 226.23C296.356 226.23 286.096 244.98 286.096 267.719C286.096 290.459 285.204 394.793 285.204 394.793C285.204 394.793 298.586 401.036 306.615 393.456L313.752 277.974L341.855 391.226C341.855 391.226 355.237 393.902 361.482 389.443L349.438 310.523C349.438 310.523 344.531 236.508 331.149 231.158C317.767 225.807 296.356 226.23 296.356 226.23Z" fill="#2F2E41"/>
<path d="M298.292 151.808C303.503 148.038 307.721 143.696 310.512 138.532C310.512 138.532 320.075 149.153 325.919 149.684C331.763 150.215 326.451 136.938 326.451 136.938L315.825 134.283L305.73 135.345L297.761 140.656L298.292 151.808Z" fill="#2F2E41"/>
<path d="M328.919 173.64C328.919 173.64 329.344 173.412 303.94 174.337L293.308 177.264L291.895 177.653C291.895 177.653 293.233 204.405 296.802 209.31C300.37 214.214 299.478 216.89 298.586 217.336C297.694 217.781 295.463 216.89 296.802 219.119C298.14 221.348 299.924 220.011 298.14 221.348C296.356 222.686 295.463 227.591 295.463 227.591L334.718 232.941C334.718 232.941 336.056 215.552 339.624 206.635C343.193 197.717 344.085 194.15 344.085 194.15L341.409 176.315L328.919 173.64Z" fill="#9BA4B5"/>
<path d="M254.289 97.5861H252.031V35.7748C252.031 26.2867 248.26 17.1873 241.549 10.4782C234.837 3.76916 225.733 3.05532e-05 216.241 1.52589e-05L85.2276 1.52589e-05C75.7353 -1.07413e-05 66.6319 3.76908 59.9199 10.4781C53.2078 17.1872 49.437 26.2866 49.437 35.7746V374.877C49.437 384.365 53.2078 393.464 59.9198 400.173C66.6318 406.882 75.7352 410.652 85.2274 410.652H216.241C220.941 410.652 225.595 409.726 229.937 407.928C234.279 406.131 238.225 403.495 241.548 400.173C244.872 396.851 247.508 392.908 249.307 388.567C251.105 384.227 252.031 379.575 252.031 374.877V141.585H254.289L254.289 97.5861Z" fill="#3F3D56"/>
<path d="M244.414 36.0261V374.629C244.417 378.135 243.729 381.607 242.39 384.846C241.051 388.086 239.087 391.03 236.609 393.511C234.132 395.992 231.189 397.961 227.951 399.306C224.712 400.65 221.24 401.343 217.733 401.347H86.0428C78.9589 401.352 72.1631 398.543 67.1505 393.54C62.1378 388.537 59.319 381.748 59.314 374.667V36.0261C59.3115 32.52 59.9999 29.0478 61.3399 25.8077C62.68 22.5675 64.6453 19.6229 67.1238 17.142C69.6023 14.6611 72.5454 12.6925 75.7851 11.3485C79.0248 10.0045 82.4975 9.31144 86.0051 9.30897H102.012C101.226 11.2362 100.925 13.3272 101.138 15.3977C101.351 17.4683 102.069 19.4548 103.231 21.1822C104.393 22.9096 105.961 24.325 107.799 25.3035C109.637 26.2821 111.687 26.7938 113.77 26.7936H188.827C190.91 26.7938 192.96 26.2821 194.798 25.3035C196.636 24.325 198.205 22.9096 199.366 21.1822C200.528 19.4548 201.247 17.4683 201.459 15.3977C201.672 13.3272 201.372 11.2362 200.585 9.30897H217.685C224.768 9.30262 231.563 12.1088 236.575 17.1103C241.588 22.1117 244.408 28.8987 244.414 35.9782L244.414 36.0261Z" fill="white"/>
<path d="M244.414 86.1214V74.588H226.95V10.9583C223.984 9.86335 220.847 9.30486 217.685 9.30894H215.412V74.588H154.835V26.7936H143.297V74.588H92.5273V9.30899H86.0428C84.3467 9.30635 82.6543 9.46663 80.9889 9.78763V74.588H59.314V86.1214H80.9889V112.799L59.3142 125.306V138.627L80.9889 126.12V205.492H59.314V217.026H80.9889V331.783H59.314V343.316H80.9889V400.868C82.6543 401.189 84.3467 401.349 86.0429 401.347H92.5273V343.316H143.297V401.347H154.835V343.316H215.412V401.347H217.685C220.847 401.351 223.984 400.792 226.95 399.697V343.316H244.414V331.783H226.95V281.613H244.258V270.079H226.95V217.026H244.414V205.492H226.95V135.138H244.414V123.605H226.95V86.1215L244.414 86.1214ZM127.218 86.1214L92.5276 106.144L92.5273 86.1214H127.218ZM92.5273 119.459L143.297 90.1584V205.492H92.5273V119.459ZM92.5273 331.783V217.026H143.297V331.783H92.5273ZM215.412 331.783H154.835V281.613H215.412V331.783ZM215.412 270.079H154.835V217.026H215.412V270.079ZM215.412 205.492H154.835V135.138H215.412V205.492ZM215.412 123.605H154.835V86.1214H215.412V123.605Z" fill="#E5E5E5"/>
<path d="M254.066 123.818C254.066 160.444 187.72 242.036 187.72 242.036C187.72 242.036 121.374 160.444 121.374 123.818C121.374 106.23 128.364 89.362 140.806 76.9251C153.248 64.4882 170.124 57.5013 187.72 57.5013C205.316 57.5013 222.191 64.4882 234.634 76.9251C247.076 89.362 254.066 106.23 254.066 123.818Z" fill="#212A3E"/>
<path d="M226.951 120.935C226.951 128.691 224.65 136.272 220.34 142.721C216.029 149.17 209.902 154.196 202.733 157.164C195.565 160.132 187.677 160.908 180.067 159.395C172.457 157.882 165.467 154.147 159.98 148.663C154.494 143.179 150.757 136.192 149.244 128.585C147.73 120.978 148.507 113.094 151.476 105.929C154.445 98.7633 159.474 92.6389 165.925 88.3301C172.377 84.0213 179.961 81.7214 187.721 81.7214C192.87 81.7191 197.97 82.7305 202.728 84.6981C207.486 86.6657 211.811 89.5508 215.453 93.1888C219.096 96.8268 221.987 101.146 223.96 105.901C225.932 110.655 226.949 115.752 226.951 120.899V120.935Z" fill="white"/>
<path d="M187.584 136.415C195.656 136.415 202.199 129.874 202.199 121.806C202.199 113.737 195.656 107.197 187.584 107.197C179.512 107.197 172.969 113.737 172.969 121.806C172.969 129.874 179.512 136.415 187.584 136.415Z" fill="#212A3E"/>
<path d="M208.795 155.172C202.495 159.176 195.183 161.303 187.717 161.302C180.25 161.301 172.939 159.172 166.64 155.166C167.95 150.589 170.716 146.562 174.519 143.696C178.323 140.83 182.956 139.279 187.72 139.28C192.483 139.281 197.116 140.832 200.919 143.699C204.722 146.567 207.486 150.594 208.795 155.172Z" fill="#212A3E"/>
<path d="M187.72 289.899C197.597 289.899 205.604 281.896 205.604 272.022C205.604 262.149 197.597 254.146 187.72 254.146C177.842 254.146 169.835 262.149 169.835 272.022C169.835 281.896 177.842 289.899 187.72 289.899Z" fill="#212A3E"/>
<path d="M464.423 411H0.576923C0.423914 411 0.277171 410.939 0.168977 410.831C0.0607828 410.723 0 410.576 0 410.423C0 410.27 0.0607828 410.124 0.168977 410.016C0.277171 409.907 0.423914 409.847 0.576923 409.847H464.423C464.576 409.847 464.723 409.907 464.831 410.016C464.939 410.124 465 410.27 465 410.423C465 410.576 464.939 410.723 464.831 410.831C464.723 410.939 464.576 411 464.423 411Z" fill="#CBCBCB"/>
</g>
<defs>
<clipPath id="clip0_29_497">
<rect width="465" height="411" fill="white"/>
</clipPath>
</defs>
</svg>
