<svg width="481" height="416" viewBox="0 0 481 416" fill="none" xmlns="http://www.w3.org/2000/svg">
<g clip-path="url(#clip0_29_364)">
<path d="M26.6668 410.408C26.6668 410.408 18.8658 396.036 0 402.251L26.6668 410.408Z" fill="#E6E6E6"/>
<path d="M27.1372 410.057C27.1372 410.057 17.4896 397.817 31.4144 382.547L27.1372 410.057Z" fill="#E6E6E6"/>
<path d="M481 409.503H0V410.584H481V409.503Z" fill="#3F3D56"/>
<path d="M365.014 277.382L375.429 317.809C375.429 317.809 375.814 346.3 378.129 357.465C380.443 368.63 388.158 395.581 388.158 395.581L397.415 397.121L395.487 359.39C395.487 359.39 395.487 336.674 393.558 331.669C391.629 326.664 387.772 275.457 387.772 275.457L365.014 277.382Z" fill="#FBBEBE"/>
<path opacity="0.1" d="M364.472 274.679L374.887 315.105C374.887 315.105 375.273 343.596 377.587 354.762C379.901 365.927 387.616 392.878 387.616 392.878L396.874 394.418L394.945 356.687C394.945 356.687 394.945 333.971 393.016 328.966C391.088 323.961 387.23 272.754 387.23 272.754L364.472 274.679Z" fill="black"/>
<path d="M393.889 107.939C381.031 107.939 370.608 119.485 370.608 133.727V151.823H376.184L379.412 145.118L378.605 151.823H414.443L417.377 145.728L416.643 151.823H420.678V137.615C420.678 121.225 408.684 107.939 393.889 107.939Z" fill="#2F2E41"/>
<path d="M355.178 271.029C355.178 271.029 350.549 290.665 356.721 292.59C362.892 294.515 361.35 271.029 361.35 271.029H355.178Z" fill="#FBBEBE"/>
<path d="M362.892 171.311L359.806 174.776L360.578 241.384L353.635 272.954L369.064 274.495L376.778 210.967L374.464 178.626L362.892 171.311Z" fill="#D0CDE1"/>
<path opacity="0.1" d="M362.752 171.311L359.667 174.776L360.438 241.384L353.495 272.954L368.924 274.495L376.639 210.967L374.324 178.626L362.752 171.311Z" fill="black"/>
<path d="M391.829 149.294C400.982 149.294 408.402 141.888 408.402 132.751C408.402 123.615 400.982 116.209 391.829 116.209C382.675 116.209 375.255 123.615 375.255 132.751C375.255 141.888 382.675 149.294 391.829 149.294Z" fill="#FBBEBE"/>
<path d="M382.327 142.677C382.327 142.677 387.188 167.822 384.978 170.469C382.769 173.116 408.402 165.616 408.402 165.616C408.402 165.616 400.005 148.412 404.425 138.707L382.327 142.677Z" fill="#FBBEBE"/>
<path d="M424.223 252.934C424.223 252.934 428.852 272.569 422.681 274.495C416.509 276.42 418.052 252.934 418.052 252.934H424.223Z" fill="#FBBEBE"/>
<path d="M388.543 272.762C388.543 272.762 381.986 312.033 382.372 317.809C382.758 323.584 382.372 324.354 382.372 324.354C382.372 324.354 375.814 341.294 373.886 350.92C371.957 360.545 367.714 372.866 367.714 372.866C367.714 372.866 362.7 384.031 366.943 384.031C371.186 384.031 376.972 382.491 376.972 382.491C376.956 378.044 378.452 373.723 381.215 370.233C385.843 364.395 399.73 337.059 399.73 333.594C399.73 330.129 402.044 320.119 402.044 320.119L410.916 277.382L388.543 272.762Z" fill="#FBBEBE"/>
<path d="M361.542 246.581C361.542 246.581 354.985 279.692 360.771 280.462C366.557 281.232 374.657 275.457 385.072 282.002C395.487 288.548 412.845 287.007 412.845 287.007C412.845 287.007 424.802 256.591 414.002 249.276C403.201 241.961 361.542 246.581 361.542 246.581Z" fill="#2F2E41"/>
<path d="M368.871 379.411C370.569 378.673 372.435 378.407 374.271 378.641C376.029 378.901 377.82 378.488 379.286 377.486C379.286 377.486 376.2 388.651 376.586 392.886C376.972 397.122 375.429 415.217 367.328 413.292C359.228 411.367 356.914 405.592 359.999 395.581C363.085 385.571 362.314 374.021 362.314 374.021C362.314 374.021 367.943 368.217 368.986 369.001C370.028 369.785 368.871 379.411 368.871 379.411Z" fill="#2F2E41"/>
<path d="M394.715 393.656C394.715 393.656 390.858 385.186 386.229 392.886C381.6 400.587 381.215 402.512 381.215 402.512C381.215 402.512 368.1 414.447 377.357 415.602C386.615 416.757 393.944 415.217 393.944 413.292C393.944 411.367 398.572 411.752 398.958 410.212C399.344 408.672 398.187 394.426 398.187 394.426L394.715 393.656Z" fill="#2F2E41"/>
<path d="M403.394 155.525C403.394 155.525 387.193 158.605 385.265 158.22C384.83 158.144 384.391 158.097 383.95 158.081C380.178 157.91 376.438 158.836 373.183 160.746C367.812 163.861 359.807 169.403 359.807 174.776C359.807 182.861 370.221 196.722 370.221 196.722C370.221 196.722 360.578 229.833 361.35 232.913C362.121 235.993 355.564 246.388 359.807 249.854C364.05 253.319 404.551 249.854 411.88 253.319C419.209 256.784 415.737 207.117 415.737 207.117C415.737 207.117 435.41 162.07 425.381 157.835C422.136 156.465 419.335 155.417 417.03 154.626C414.812 153.864 412.463 153.551 410.121 153.705C407.78 153.86 405.493 154.478 403.394 155.525Z" fill="#D0CDE1"/>
<path d="M418.438 158.22L427.288 159.68C427.288 159.68 431.167 163.61 431.167 165.536C431.167 167.461 430.395 250.624 429.238 253.319C428.081 256.014 415.352 254.859 415.352 254.859L417.666 207.502L418.438 158.22Z" fill="#D0CDE1"/>
<path d="M400.507 115.043C399.386 113.541 397.935 112.318 396.264 111.467C394.593 110.616 392.749 110.16 390.873 110.136H390.416C381.603 110.136 374.459 118.095 374.459 127.914L377.412 127.914L377.889 124.291L378.588 127.914H396.102L397.569 124.849L397.202 127.914H400.647C402.255 135.884 399.945 143.853 393.717 151.823H399.586L402.521 145.692L401.787 151.823H412.975L415.176 137.723C415.176 127.163 409.029 118.209 400.507 115.043Z" fill="#2F2E41"/>
<path d="M403.723 116.528C408.539 116.528 412.443 112.631 412.443 107.824C412.443 103.017 408.539 99.1206 403.723 99.1206C398.908 99.1206 395.004 103.017 395.004 107.824C395.004 112.631 398.908 116.528 403.723 116.528Z" fill="#2F2E41"/>
<path d="M305.331 97.4506H303.073V35.7251C303.073 31.0336 302.147 26.388 300.349 22.0537C298.55 17.7193 295.914 13.781 292.59 10.4636C289.267 7.14622 285.321 4.51473 280.978 2.71938C276.636 0.924035 271.982 -1.207e-05 267.282 1.63653e-10H136.265C131.564 -1.42e-05 126.91 0.924032 122.568 2.71938C118.225 4.51473 114.28 7.14622 110.956 10.4636C107.633 13.781 104.996 17.7193 103.197 22.0537C101.399 26.388 100.473 31.0336 100.473 35.7251V374.356C100.473 379.048 101.399 383.693 103.197 388.027C104.996 392.362 107.633 396.3 110.956 399.618C114.28 402.935 118.225 405.566 122.568 407.362C126.91 409.157 131.564 410.081 136.265 410.081H267.282C271.982 410.081 276.636 409.157 280.978 407.362C285.321 405.566 289.267 402.935 292.59 399.618C295.914 396.3 298.55 392.362 300.349 388.027C302.147 383.693 303.073 379.048 303.073 374.356V141.388H305.331V97.4506Z" fill="#3F3D56"/>
<path opacity="0.85" d="M268.726 9.29443H251.624C252.41 11.219 252.71 13.3072 252.498 15.3749C252.286 17.4426 251.567 19.4264 250.405 21.1516C249.244 22.8768 247.675 24.2903 245.837 25.2678C243.999 26.2452 241.949 26.7566 239.867 26.7567H164.808C162.726 26.7566 160.676 26.2452 158.838 25.2678C157 24.2903 155.431 22.8768 154.27 21.1516C153.108 19.4264 152.389 17.4426 152.177 15.3749C151.964 13.3072 152.265 11.219 153.051 9.29443H137.078C133.568 9.29443 130.092 9.9845 126.849 11.3252C123.606 12.666 120.66 14.6312 118.178 17.1085C115.696 19.5859 113.727 22.527 112.384 25.7638C111.04 29.0007 110.349 32.4699 110.349 35.9735V374.108C110.349 377.611 111.04 381.08 112.384 384.317C113.727 387.554 115.696 390.495 118.178 392.973C120.66 395.45 123.606 397.415 126.849 398.756C130.092 400.097 133.568 400.787 137.078 400.787H268.726C272.236 400.787 275.712 400.097 278.954 398.756C282.197 397.415 285.144 395.45 287.626 392.973C290.108 390.495 292.077 387.554 293.42 384.317C294.763 381.08 295.455 377.611 295.455 374.108V35.9735C295.455 32.4699 294.763 29.0007 293.42 25.7638C292.077 22.527 290.108 19.5859 287.626 17.1085C285.144 14.6312 282.197 12.666 278.954 11.3252C275.712 9.9845 272.236 9.29443 268.726 9.29443Z" fill="#212A3E"/>
<path d="M237.642 235.801H263.005V229.707H237.642V235.801Z" fill="#F1F6F9"/>
<path d="M149.81 235.801H158.735V229.707H149.81V235.801Z" fill="#F1F6F9"/>
<path d="M131.962 235.801H140.886V229.707H131.962V235.801Z" fill="#F1F6F9"/>
<path d="M168.128 235.801H228.718V229.707H168.128V235.801Z" fill="#F1F6F9"/>
<path d="M181.749 275.182H190.673V269.087H181.749V275.182Z" fill="#F1F6F9"/>
<path d="M163.901 275.182H172.825V269.087H163.901V275.182Z" fill="#F1F6F9"/>
<path d="M200.067 275.182H260.657V269.087H200.067V275.182Z" fill="#F1F6F9"/>
<path d="M164.84 249.397H190.204V243.302H164.84V249.397Z" fill="#F1F6F9"/>
<path d="M130.553 249.397H155.916V243.302H130.553V249.397Z" fill="#F1F6F9"/>
<path d="M268.172 249.397H277.096V243.302H268.172V249.397Z" fill="#F1F6F9"/>
<path d="M198.658 249.397H259.248V243.302H198.658V249.397Z" fill="#F1F6F9"/>
<path d="M242.809 256.429H217.446V262.524H242.809V256.429Z" fill="#F1F6F9"/>
<path d="M277.096 256.429H251.733V262.524H277.096V256.429Z" fill="#F1F6F9"/>
<path d="M139.477 256.429H130.553V262.524H139.477V256.429Z" fill="#F1F6F9"/>
<path d="M208.991 256.429H148.401V262.524H208.991V256.429Z" fill="#F1F6F9"/>
<path d="M203.002 178.436C229.768 178.436 251.465 156.778 251.465 130.062C251.465 103.347 229.768 81.6895 203.002 81.6895C176.237 81.6895 154.539 103.347 154.539 130.062C154.539 156.778 176.237 178.436 203.002 178.436Z" fill="#F1F6F9"/>
<path d="M199.541 147.339C208.144 147.339 215.118 140.377 215.118 131.79C215.118 123.203 208.144 116.242 199.541 116.242C190.937 116.242 183.963 123.203 183.963 131.79C183.963 140.377 190.937 147.339 199.541 147.339Z" fill="#FBBEBE"/>
<path d="M200.014 132.721C199.045 131.232 199.535 129.207 198.855 127.566C197.788 124.989 194.47 124.386 191.687 124.151C189.843 123.914 187.975 123.919 186.133 124.165C185.318 124.3 184.546 124.623 183.878 125.106C183.209 125.59 182.663 126.222 182.281 126.953C181.869 127.777 181.973 125.194 182.237 121.878C182.504 118.495 183.84 115.283 186.053 112.706C188.267 110.129 191.242 108.32 194.552 107.539C194.591 107.53 194.63 107.521 194.669 107.512C198.058 106.731 201.553 106.157 205.007 106.562C208.461 106.967 211.905 108.456 214.061 111.18C215.046 112.425 215.743 113.894 216.843 115.039C218.775 117.052 221.64 117.784 224.272 118.718C227.248 119.775 230.141 121.224 232.418 123.409C234.694 125.595 236.308 128.591 236.356 131.743C236.411 135.421 234.068 139.216 230.291 139.941C229.634 140.055 229.014 140.323 228.48 140.721C224.874 143.512 228.988 146.433 228.959 149.575C228.935 152.197 226.012 153.905 223.388 154.027C220.935 154.071 218.543 153.262 216.622 151.739C214.701 150.216 213.371 148.073 212.859 145.679C212.464 143.527 212.769 141.318 213.026 139.145C213.321 136.659 207.956 130.804 211.5 135.095C212.192 135.911 212.659 136.892 212.855 137.943C213.445 141.371 210.319 142.524 208.348 144.424C207.266 145.499 206.507 146.854 206.158 148.337C205.808 149.821 205.882 151.372 206.371 152.815C204.746 151.345 203.685 149.356 203.373 147.189C203.06 145.022 203.516 142.814 204.66 140.947C205.295 139.975 206.113 139.129 206.715 138.137C207.654 136.588 207.913 133.219 205.284 133.312C203.407 133.378 201.457 134.938 200.014 132.721Z" fill="#2F2E41"/>
</g>
<defs>
<clipPath id="clip0_29_364">
<rect width="481" height="416" fill="white"/>
</clipPath>
</defs>
</svg>
