<svg width="481" height="323" viewBox="0 0 481 323" fill="none" xmlns="http://www.w3.org/2000/svg">
<g clip-path="url(#clip0_22_90)">
<path d="M481 171.474C481 236.733 439.668 292.336 381.776 313.494C372.969 316.719 363.878 319.107 354.624 320.626C329.164 324.805 303.061 322.432 278.771 313.732C220.512 292.749 178.878 236.958 178.905 171.442C178.905 87.9936 246.533 20.316 329.953 20.316C361.479 20.2701 392.223 30.1405 417.839 48.5322C456.082 75.9514 481 120.799 481 171.474Z" fill="#9BA4B5"/>
<path d="M381.776 313.494C372.969 316.719 363.878 319.107 354.624 320.626C329.164 324.804 303.061 322.432 278.771 313.732L285.746 285.722L286.167 284.041L300.402 284.096L371.916 284.353L372.832 287.06L381.776 313.494Z" fill="#2F2E41"/>
<path d="M131.206 0H0V148.572H131.206V0Z" fill="#E6E6E6"/>
<path d="M128.637 3.14319H2.33936V145.43H128.637V3.14319Z" fill="white"/>
<path d="M65.6031 140.37C69.513 140.37 72.6827 137.199 72.6827 133.286C72.6827 129.373 69.513 126.201 65.6031 126.201C61.6932 126.201 58.5236 129.373 58.5236 133.286C58.5236 137.199 61.6932 140.37 65.6031 140.37Z" fill="#E6E6E6"/>
<path d="M64.4071 53.5095H23.7446V57.6723H64.4071V53.5095Z" fill="#E6E6E6"/>
<path d="M85.1152 65.9837H23.7446V70.1465H85.1152V65.9837Z" fill="#212A3E"/>
<path d="M79.0912 78.5363H23.7446V82.6991H79.0912V78.5363Z" fill="#E6E6E6"/>
<path d="M109.211 90.7572H23.7446V94.92H109.211V90.7572Z" fill="#212A3E"/>
<path d="M94.2865 102.396H24.6331V106.559H94.2865V102.396Z" fill="#E6E6E6"/>
<path d="M186.571 241.757C187.069 242.27 187.527 242.821 187.94 243.406L252.07 241.836L259.552 228.155L281.66 236.755L270.766 262.263C269.886 264.324 268.362 266.043 266.422 267.163C264.483 268.283 262.233 268.743 260.009 268.475L187.552 259.715C185.843 261.881 183.516 263.474 180.88 264.283C178.244 265.092 175.424 265.079 172.795 264.246C170.167 263.412 167.854 261.798 166.165 259.617C164.476 257.436 163.49 254.792 163.339 252.036C163.189 249.281 163.879 246.545 165.32 244.193C166.761 241.84 168.883 239.982 171.405 238.866C173.926 237.749 176.728 237.428 179.437 237.944C182.145 238.46 184.633 239.789 186.568 241.754L186.571 241.757Z" fill="#9F616A"/>
<path d="M272.887 163.636L302.9 153.793L311.714 141.695L354.61 144.236L360.908 158.353L383.781 169.169L380.266 234.498L374.252 295.638C343.329 279.614 285.62 291.831 285.114 292.03L272.887 163.636Z" fill="#212A3E"/>
<path d="M279.303 252.063L248.776 239.84L248.906 239.297C249.037 238.747 262.03 184.414 263.755 175.683C265.552 166.586 272.118 164.071 272.397 163.969L272.6 163.894L284.681 167.574L289.987 209.294L279.303 252.063Z" fill="#212A3E"/>
<path d="M345.217 292.951C345.933 292.934 346.648 292.973 347.358 293.069L389.81 244.94L384.872 230.151L406.205 219.775L417.491 245.112C418.402 247.159 418.626 249.446 418.128 251.631C417.63 253.816 416.437 255.78 414.729 257.229L359.047 304.442C359.471 307.168 359.056 309.959 357.857 312.444C356.657 314.928 354.73 316.989 352.332 318.35C349.934 319.712 347.179 320.311 344.432 320.068C341.686 319.824 339.078 318.75 336.957 316.987C334.835 315.224 333.301 312.857 332.556 310.2C331.812 307.543 331.894 304.723 332.79 302.113C333.687 299.504 335.356 297.23 337.576 295.593C339.796 293.956 342.461 293.035 345.217 292.951Z" fill="#9F616A"/>
<path d="M386.421 249.625L368.713 207.939L375.62 178.903L383.062 169.494C383.607 169.261 384.194 169.143 384.787 169.149C385.38 169.154 385.965 169.283 386.506 169.526C389.252 170.631 391.586 174.019 393.453 179.596L410.049 226.903L386.421 249.625Z" fill="#212A3E"/>
<path d="M294.544 126.248V94.8213C294.526 89.291 295.596 83.8113 297.694 78.695C299.792 73.5786 302.876 68.9259 306.771 65.0025C310.665 61.079 315.294 57.9617 320.393 55.8284C325.491 53.6951 330.96 52.5877 336.486 52.5694C342.012 52.5511 347.488 53.6222 352.601 55.7216C357.713 57.821 362.363 60.9076 366.283 64.8052C370.204 68.7027 373.319 73.3349 375.45 78.4372C377.582 83.5395 378.689 89.012 378.707 94.5423C378.707 94.6353 378.707 94.7283 378.707 94.8213V126.248C378.705 127.748 378.109 129.186 377.05 130.247C375.99 131.307 374.553 131.904 373.054 131.905H300.197C298.698 131.904 297.261 131.307 296.201 130.247C295.142 129.186 294.546 127.748 294.544 126.248Z" fill="#2F2E41"/>
<path d="M327.978 131.173C345.017 131.173 358.831 117.35 358.831 100.298C358.831 83.2461 345.017 69.4229 327.978 69.4229C310.939 69.4229 297.125 83.2461 297.125 100.298C297.125 117.35 310.939 131.173 327.978 131.173Z" fill="#9F616A"/>
<path d="M284.589 97.3356C284.598 88.5035 288.109 80.036 294.349 73.7907C300.59 67.5455 309.051 64.0326 317.877 64.0226H324.158C332.984 64.0326 341.445 67.5455 347.686 73.7908C353.926 80.036 357.437 88.5035 357.446 97.3356V97.964H344.173L339.645 85.2759L338.74 97.964H331.881L329.597 91.5632L329.139 97.964H284.589V97.3356Z" fill="#2F2E41"/>
<path d="M324.942 135.44C324.319 134.595 323.947 133.592 323.868 132.545C323.79 131.498 324.009 130.45 324.499 129.523C331.155 116.854 340.474 93.4439 328.105 79.0069L327.218 77.9708H363.129V131.925L330.506 137.685C330.176 137.744 329.842 137.773 329.506 137.773C328.616 137.774 327.738 137.562 326.945 137.157C326.152 136.751 325.466 136.163 324.944 135.441L324.942 135.44Z" fill="#2F2E41"/>
<path d="M65.4891 11.5714C62.5115 11.5713 59.6008 12.4547 57.1249 14.11C54.6491 15.7654 52.7194 18.1182 51.5798 20.8711C50.4401 23.624 50.1419 26.6532 50.7226 29.5757C51.3033 32.4982 52.737 35.1828 54.8424 37.2899C56.9477 39.397 59.6302 40.832 62.5505 41.4135C65.4708 41.9949 68.4978 41.6967 71.2488 40.5566C73.9998 39.4164 76.3511 37.4855 78.0055 35.008C79.6598 32.5306 80.5429 29.6178 80.5431 26.638V26.6373C80.5431 24.6588 80.1537 22.6997 79.3971 20.8718C78.6406 19.0439 77.5316 17.3831 76.1337 15.9841C74.7357 14.5851 73.076 13.4754 71.2495 12.7182C69.423 11.9611 67.4653 11.5714 65.4883 11.5714H65.4891ZM65.4891 16.0908C66.3822 16.0908 67.2554 16.3558 67.998 16.8524C68.7407 17.349 69.3195 18.0548 69.6613 18.8806C70.0032 19.7064 70.0926 20.6151 69.9183 21.4918C69.7441 22.3684 69.314 23.1737 68.6824 23.8058C68.0508 24.4378 67.2462 24.8682 66.3701 25.0426C65.4941 25.217 64.5861 25.1275 63.7609 24.7855C62.9357 24.4434 62.2304 23.8641 61.7341 23.1209C61.2379 22.3777 60.973 21.504 60.973 20.6101C60.973 19.4115 61.4488 18.262 62.2957 17.4145C63.1427 16.5669 64.2913 16.0908 65.4891 16.0908ZM65.4891 37.8489C63.7049 37.8408 61.9496 37.3971 60.3756 36.5565C58.8015 35.7158 57.4561 34.5035 56.4562 33.0248C56.5287 30.0116 62.4781 28.3531 65.4891 28.3531C68.5 28.3531 74.4494 30.0116 74.5219 33.0248C73.5209 34.5025 72.1753 35.7139 70.6015 36.5544C69.0276 37.3949 67.2729 37.8393 65.4891 37.8489Z" fill="#212A3E"/>
<path d="M65.664 136.002C71.8661 124.628 86.7236 117.425 98.8775 123.917C104.348 126.839 108.697 132.008 110.077 138.117C111.679 145.213 108.304 151.98 104.819 157.942C102.928 161.179 100.855 164.349 99.2899 167.762C97.6691 171.297 96.5106 175.382 97.7309 179.228C98.8294 182.692 101.584 185.212 104.6 187.064C107.93 189.03 111.471 190.613 115.156 191.782C122.742 194.306 130.743 195.342 138.721 194.833C142.687 194.563 146.618 193.927 150.467 192.933C154.56 191.888 158.577 190.565 162.677 189.543C169.523 187.841 177.328 186.995 183.82 190.413C190.126 193.735 192.948 200.683 193.821 207.441C195.433 219.921 190.489 232.872 181.561 241.612C177.277 245.805 171.887 249.269 166.017 250.687C160.894 251.923 154.317 251.844 150.24 248.012C145.692 243.735 146.762 236.877 150.375 232.365C154.986 226.608 162.798 225.225 169.77 225.084C177.7 224.925 185.624 226.107 193.549 225.372C197.418 225.071 201.214 224.155 204.795 222.658C207.942 221.272 210.814 219.328 213.269 216.919C218.162 212.161 221.463 205.824 223.103 199.234C225.079 191.31 224.649 182.981 223.115 175.022C222.297 170.918 221.245 166.864 219.962 162.88C219.433 161.199 216.78 161.918 217.314 163.611C222.037 178.6 224.671 195.933 215.545 209.85C211.768 215.751 205.884 219.99 199.093 221.701C191.194 223.665 182.906 222.694 174.875 222.402C167.24 222.124 158.855 222.424 152.31 226.875C146.94 230.525 143.185 237.468 144.808 244.023C146.373 250.344 152.443 253.55 158.514 254.044C164.884 254.564 171.153 252.424 176.503 249.078C187.631 242.119 195.031 229.88 196.579 216.904C197.386 210.142 196.565 202.859 193.501 196.722C191.886 193.4 189.373 190.597 186.247 188.632C183.13 186.72 179.53 185.779 175.914 185.446C167.699 184.689 159.806 187.511 152.013 189.67C148.032 190.826 143.951 191.606 139.825 191.999C135.82 192.331 131.791 192.265 127.799 191.803C123.838 191.335 119.934 190.468 116.147 189.215C112.436 188.067 108.883 186.459 105.57 184.429C102.648 182.559 100.12 179.88 99.9765 176.23C99.8204 172.272 101.815 168.57 103.711 165.233C107.459 158.641 112.088 152.193 113.065 144.476C113.921 137.726 111.207 131.073 106.52 126.258C104.171 123.814 101.343 121.882 98.2129 120.583C95.0831 119.284 91.719 118.645 88.3311 118.707C81.377 118.906 74.7186 121.933 69.6036 126.581C67.0667 128.887 64.9319 131.601 63.287 134.61C62.4398 136.164 64.8103 137.552 65.6585 135.997L65.664 136.002Z" fill="#3F3D56"/>
</g>
<defs>
<clipPath id="clip0_22_90">
<rect width="481" height="322.632" fill="white"/>
</clipPath>
</defs>
</svg>
